<?xml version="1.0" encoding="UTF-8" standalone="no"?>
<!DOCTYPE svg PUBLIC "-//W3C//DTD SVG 1.1//EN" "http://www.w3.org/Graphics/SVG/1.1/DTD/svg11.dtd">
<svg width="1058" height="1115" viewBox="0 0 1058 1115" fill="none" xmlns="http://www.w3.org/2000/svg">
	<path d="M368.975 435.489L455.226 360.589M368.975 435.489L543.768 435.489M368.975 435.489L541.476 15.8971M368.975 435.489L241.122 346.193M368.975 435.489L145.84 435.489M541.476 15.8971L541.476 285.689M541.476 15.8971L674.49 195.397M703.268 336.397L602.268 232.897L541.476 285.689M703.268 336.397L829.268 376.897M703.268 336.397L543.768 435.489M703.268 336.397L749.518 296.647M703.268 336.397L674.49 195.397M795.768 256.897L1011.98 435.489L908.768 435.489M795.768 256.897L829.268 376.897M795.768 256.897L749.518 296.647M908.768 435.489L829.268 376.897M908.768 435.489L711.768 435.489M541.476 285.689L455.226 360.589M543.768 435.489L711.768 435.489M543.768 435.489L455.226 360.589M829.268 376.897L711.768 435.489M749.518 296.647L674.49 195.397M241.122 346.193L113.268 256.897L17.7684 435.489L145.84 435.489M241.122 346.193L145.84 435.489" stroke="#00CCFF" stroke-width="15"/>
	<rect y="442" width="1058" height="168" fill="black"/>
	<path d="M63.7295 482.04V571H49.1375V482.04H63.7295ZM154.823 526.328C154.823 517.624 156.829 509.816 160.839 502.904C164.935 495.992 170.439 490.616 177.351 486.776C184.349 482.851 191.986 480.888 200.263 480.888C209.735 480.888 218.141 483.235 225.479 487.928C232.903 492.536 238.279 499.107 241.607 507.64H224.071C221.767 502.947 218.567 499.448 214.471 497.144C210.375 494.84 205.639 493.688 200.263 493.688C194.375 493.688 189.127 495.011 184.519 497.656C179.911 500.301 176.285 504.099 173.639 509.048C171.079 513.997 169.799 519.757 169.799 526.328C169.799 532.899 171.079 538.659 173.639 543.608C176.285 548.557 179.911 552.397 184.519 555.128C189.127 557.773 194.375 559.096 200.263 559.096C205.639 559.096 210.375 557.944 214.471 555.64C218.567 553.336 221.767 549.837 224.071 545.144H241.607C238.279 553.677 232.903 560.248 225.479 564.856C218.141 569.464 209.735 571.768 200.263 571.768C191.901 571.768 184.263 569.848 177.351 566.008C170.439 562.083 164.935 556.664 160.839 549.752C156.829 542.84 154.823 535.032 154.823 526.328ZM350.079 493.816V519.928H380.799V531.832H350.079V559.096H384.639V571H335.487V481.912H384.639V493.816H350.079Z" fill="#00CCFF"/>
	<path d="M528.437 571L494.005 531.192V571H479.413V482.04H494.005V522.616L528.565 482.04H546.869L508.213 526.584L547.509 571H528.437ZM651.804 493.816V519.928H682.524V531.832H651.804V559.096H686.364V571H637.212V481.912H686.364V493.816H651.804ZM827.345 571L806.865 535.416H795.729V571H781.137V482.04H811.857C818.684 482.04 824.444 483.235 829.137 485.624C833.916 488.013 837.457 491.213 839.761 495.224C842.151 499.235 843.345 503.715 843.345 508.664C843.345 514.467 841.639 519.757 838.225 524.536C834.897 529.229 829.735 532.429 822.737 534.136L844.753 571H827.345ZM795.729 523.768H811.857C817.319 523.768 821.415 522.403 824.145 519.672C826.961 516.941 828.369 513.272 828.369 508.664C828.369 504.056 827.004 500.472 824.273 497.912C821.543 495.267 817.404 493.944 811.857 493.944H795.729V523.768ZM992.445 552.824H955.197L948.797 571H933.565L965.437 481.912H982.333L1014.2 571H998.845L992.445 552.824ZM988.349 540.92L973.885 499.576L959.293 540.92H988.349Z" fill="white"/>
	<path d="M0 442H1058" stroke="#00CCFF" stroke-width="15"/>
	<path d="M0 610H1058" stroke="white" stroke-width="15"/>
	<path d="M46 635.5H155C160.523 635.5 165 639.977 165 645.5V704.5M46 635.5V698M46 635.5H24C18.4772 635.5 14 631.023 14 625.5V620C14 614.477 18.4772 610 24 610H208.5M208.5 610V742.5C208.5 748.023 204.023 752.5 198.5 752.5H126.5M208.5 610H233M111 752.5H126.5M233 610V843.5M233 610H257.5M233 843.5H178.5M233 843.5V933C233 938.523 228.523 943 223 943H111M257.5 610V963.5M257.5 610H363.5M257.5 963.5L186.192 965.701C180.791 965.868 176.5 970.293 176.5 975.696V1086.5M257.5 963.5H302.25M347 982.5V973.5C347 967.977 342.523 963.5 337 963.5H302.25M302.25 963.5V1037M126.5 752.5V842C126.5 847.523 122.023 852 116.5 852H86.5M363.5 610V731M363.5 610H480.5M363.5 852V731M363.5 731H315.5C309.977 731 305.5 735.477 305.5 741V848M560 648H688.5C694.023 648 698.5 643.523 698.5 638V620C698.5 614.477 694.023 610 688.5 610H480.5M480.5 610V648" stroke="white" stroke-width="9"/>
	<path d="M318.867 1050.5C318.867 1059.89 311.286 1067.5 301.934 1067.5C292.581 1067.5 285 1059.89 285 1050.5C285 1041.11 292.581 1033.5 301.934 1033.5C311.286 1033.5 318.867 1041.11 318.867 1050.5Z" fill="white"/>
	<ellipse cx="301.934" cy="1050.5" rx="7.96875" ry="8" fill="black"/>
	<path d="M380.867 860.5C380.867 869.889 373.286 877.5 363.934 877.5C354.581 877.5 347 869.889 347 860.5C347 851.111 354.581 843.5 363.934 843.5C373.286 843.5 380.867 851.111 380.867 860.5Z" fill="white"/>
	<ellipse cx="363.934" cy="860.5" rx="7.96875" ry="8" fill="black"/>
	<path d="M321.867 861.5C321.867 870.889 314.286 878.5 304.934 878.5C295.581 878.5 288 870.889 288 861.5C288 852.111 295.581 844.5 304.934 844.5C314.286 844.5 321.867 852.111 321.867 861.5Z" fill="white"/>
	<ellipse cx="304.934" cy="861.5" rx="7.96875" ry="8" fill="black"/>
	<path d="M363.867 997.5C363.867 1006.89 356.286 1014.5 346.934 1014.5C337.581 1014.5 330 1006.89 330 997.5C330 988.111 337.581 980.5 346.934 980.5C356.286 980.5 363.867 988.111 363.867 997.5Z" fill="white"/>
	<ellipse cx="346.934" cy="997.5" rx="7.96875" ry="8" fill="black"/>
	<path d="M113.867 943.5C113.867 952.889 106.286 960.5 96.9336 960.5C87.5814 960.5 80 952.889 80 943.5C80 934.111 87.5814 926.5 96.9336 926.5C106.286 926.5 113.867 934.111 113.867 943.5Z" fill="white"/>
	<ellipse cx="96.9336" cy="943.5" rx="7.96875" ry="8" fill="black"/>
	<path d="M193.867 1097.5C193.867 1106.89 186.286 1114.5 176.934 1114.5C167.581 1114.5 160 1106.89 160 1097.5C160 1088.11 167.581 1080.5 176.934 1080.5C186.286 1080.5 193.867 1088.11 193.867 1097.5Z" fill="white"/>
	<ellipse cx="176.934" cy="1097.5" rx="7.96875" ry="8" fill="black"/>
	<path d="M181.867 843.5C181.867 852.889 174.286 860.5 164.934 860.5C155.581 860.5 148 852.889 148 843.5C148 834.111 155.581 826.5 164.934 826.5C174.286 826.5 181.867 834.111 181.867 843.5Z" fill="white"/>
	<ellipse cx="164.934" cy="843.5" rx="7.96875" ry="8" fill="black"/>
	<path d="M88.8672 852.5C88.8672 861.889 81.2858 869.5 71.9336 869.5C62.5814 869.5 55 861.889 55 852.5C55 843.111 62.5814 835.5 71.9336 835.5C81.2858 835.5 88.8672 843.111 88.8672 852.5Z" fill="white"/>
	<ellipse cx="71.9336" cy="852.5" rx="7.96875" ry="8" fill="black"/>
	<path d="M181.867 709.5C181.867 718.889 174.286 726.5 164.934 726.5C155.581 726.5 148 718.889 148 709.5C148 700.111 155.581 692.5 164.934 692.5C174.286 692.5 181.867 700.111 181.867 709.5Z" fill="white"/>
	<ellipse cx="164.934" cy="709.5" rx="7.96875" ry="8" fill="black"/>
	<path d="M62.8672 709.5C62.8672 718.889 55.2858 726.5 45.9336 726.5C36.5814 726.5 29 718.889 29 709.5C29 700.111 36.5814 692.5 45.9336 692.5C55.2858 692.5 62.8672 700.111 62.8672 709.5Z" fill="white"/>
	<ellipse cx="45.9336" cy="709.5" rx="7.96875" ry="8" fill="black"/>
	<path d="M111.867 753C111.867 762.389 104.286 770 94.9336 770C85.5814 770 78 762.389 78 753C78 743.611 85.5814 736 94.9336 736C104.286 736 111.867 743.611 111.867 753Z" fill="white"/>
	<ellipse cx="94.9336" cy="753" rx="7.96875" ry="8" fill="black"/>
	<path d="M496.867 661.5C496.867 670.889 489.286 678.5 479.934 678.5C470.581 678.5 463 670.889 463 661.5C463 652.111 470.581 644.5 479.934 644.5C489.286 644.5 496.867 652.111 496.867 661.5Z" fill="white"/>
	<ellipse cx="479.934" cy="661.5" rx="7.96875" ry="8" fill="black"/>
	<path d="M562.867 648.5C562.867 657.889 555.286 665.5 545.934 665.5C536.581 665.5 529 657.889 529 648.5C529 639.111 536.581 631.5 545.934 631.5C555.286 631.5 562.867 639.111 562.867 648.5Z" fill="white"/>
	<ellipse cx="545.934" cy="648.5" rx="7.96875" ry="8" fill="black"/>
</svg>
